<?xml version="1.0" standalone="no"?>
<!DOCTYPE svg PUBLIC "-//W3C//DTD SVG 20010904//EN"
 "http://www.w3.org/TR/2001/REC-SVG-20010904/DTD/svg10.dtd">
<svg version="1.0" xmlns="http://www.w3.org/2000/svg"
 width="361.000000pt" height="361.000000pt" viewBox="0 0 361.000000 361.000000"
 preserveAspectRatio="xMidYMid meet">
<metadata>
Created by potrace 1.14, written by Peter Selinger 2001-2017
</metadata>
<g transform="translate(0.000000,361.000000) scale(0.100000,-0.100000)"
fill="#000000" stroke="none">
<path d="M1746 3603 c-1 -2 -25 -6 -52 -9 -28 -3 -58 -14 -70 -25 -11 -10 -29
-19 -40 -19 -19 -1 -66 -30 -48 -30 5 0 1 -5 -8 -11 -10 -5 -18 -19 -18 -29 0
-11 -4 -20 -10 -20 -5 0 -10 -9 -10 -20 0 -11 -4 -20 -10 -20 -5 0 -10 -6 -10
-14 0 -8 -5 -16 -11 -18 -17 -6 -19 -127 -2 -143 7 -8 13 -18 13 -24 0 -6 4
-11 8 -11 4 0 8 -9 9 -20 1 -11 -4 -20 -13 -20 -8 0 -14 -6 -14 -14 0 -8 -5
-16 -10 -18 -10 -3 -16 -22 -27 -81 -3 -17 -10 -26 -18 -23 -7 2 -17 0 -22 -5
-6 -6 -30 -13 -54 -15 -24 -3 -62 -18 -87 -35 -49 -33 -52 -34 -52 -15 0 8 -6
21 -14 28 -7 8 -21 29 -30 46 -9 18 -32 40 -51 49 -19 9 -35 20 -35 25 0 4
-11 8 -25 8 -14 0 -25 4 -25 8 0 9 -82 35 -119 36 -14 1 -33 -4 -41 -10 -24
-19 -83 -41 -103 -38 -9 1 -17 -2 -17 -8 0 -12 -56 -78 -62 -73 -1 2 -4 -8 -5
-22 0 -15 -7 -30 -15 -34 -11 -6 -13 -31 -12 -106 1 -54 3 -99 4 -100 2 -2 3
-6 4 -10 1 -5 5 -14 9 -20 5 -7 10 -22 12 -33 2 -11 11 -27 19 -35 8 -9 13
-22 10 -30 -4 -9 0 -15 8 -15 8 0 24 -9 36 -20 12 -12 22 -18 22 -15 0 3 16
-10 36 -30 19 -19 39 -33 43 -30 14 8 20 -34 7 -48 -6 -6 -17 -25 -24 -40 -6
-15 -16 -26 -21 -23 -4 3 -6 -6 -3 -19 2 -15 0 -25 -7 -25 -6 0 -11 -8 -11
-19 0 -10 -7 -24 -15 -31 -8 -7 -12 -17 -8 -23 3 -5 -1 -15 -9 -21 -8 -6 -20
-32 -27 -58 -8 -27 -18 -48 -22 -48 -5 0 -9 -11 -9 -25 0 -14 -5 -25 -11 -25
-6 0 -9 -6 -6 -14 3 -7 1 -18 -4 -23 -6 -6 -13 -26 -15 -44 -3 -19 -10 -38
-15 -43 -5 -6 -9 -19 -9 -29 0 -13 -5 -17 -16 -13 -8 3 -13 2 -10 -2 3 -5 0
-19 -7 -33 -7 -13 -14 -37 -16 -54 -1 -16 -7 -38 -12 -48 -6 -9 -7 -22 -4 -27
3 -6 0 -10 -8 -10 -8 0 -18 -7 -21 -16 -3 -9 -11 -12 -18 -8 -7 4 -10 4 -6 0
8 -9 -22 -46 -37 -46 -6 0 -20 -8 -31 -19 -44 -43 -64 -77 -85 -146 -6 -22
-16 -45 -21 -52 -5 -7 -4 -13 3 -15 8 -3 5 -19 -10 -53 -41 -92 -47 -248 -16
-382 4 -18 10 -33 14 -33 3 0 6 -13 7 -28 1 -43 42 -120 87 -165 15 -15 27
-31 27 -35 0 -4 9 -13 21 -20 12 -7 18 -16 15 -19 -3 -3 10 -25 29 -48 19 -23
32 -45 28 -48 -3 -4 1 -7 11 -7 9 0 15 -4 11 -9 -3 -5 4 -12 15 -16 11 -3 20
-10 20 -15 0 -4 9 -10 21 -13 12 -3 18 -10 14 -17 -3 -6 -3 -10 2 -9 17 4 92
-14 88 -20 -2 -4 35 -17 83 -30 48 -13 94 -26 102 -29 8 -3 21 -4 28 -3 6 1
12 -3 12 -10 0 -9 3 -9 14 0 8 7 17 8 20 3 6 -10 65 -10 81 0 6 3 26 0 45 -8
19 -7 32 -13 27 -13 -9 -1 27 -73 51 -102 52 -64 90 -99 111 -102 12 -2 26 -8
29 -14 13 -18 66 -30 140 -30 40 0 75 -2 77 -4 2 -3 6 -16 9 -29 3 -14 10 -40
15 -59 6 -19 9 -37 6 -39 -2 -2 8 -15 21 -27 14 -13 25 -26 25 -29 -1 -3 -1
-10 -1 -16 0 -7 282 -10 826 -10 l826 0 -6 23 c-4 12 -9 34 -12 50 -4 15 -10
27 -15 27 -4 0 -13 16 -20 35 -7 19 -17 35 -21 35 -4 0 -8 7 -8 15 0 8 -4 15
-9 15 -5 0 -12 13 -16 30 -4 16 -10 30 -14 30 -4 0 -16 26 -27 58 -10 31 -26
71 -35 88 -9 17 -20 46 -24 65 -4 18 -14 44 -22 56 -9 13 -11 23 -7 23 5 0 4
4 -2 8 -10 7 -70 110 -73 125 0 4 -1 11 -1 16 0 5 -7 16 -15 25 -8 8 -17 25
-19 38 -3 13 -5 23 -6 23 -1 0 -4 11 -6 25 -3 14 -9 27 -14 28 -6 2 -10 10
-10 18 0 16 -20 56 -33 65 -7 5 -26 50 -44 102 -3 9 -11 17 -18 17 -13 0 -55
88 -58 120 -1 10 -4 17 -8 14 -14 -9 -47 80 -42 114 3 17 9 32 13 32 18 0 16
49 -3 65 -11 10 -17 24 -14 36 3 10 1 19 -4 19 -5 0 -7 13 -5 30 2 16 -3 38
-10 49 -9 13 -11 27 -6 43 5 13 8 30 7 38 -1 8 1 20 4 25 7 14 9 22 20 82 5
28 16 64 25 81 8 16 12 32 9 36 -4 3 0 6 8 6 11 0 11 2 1 8 -9 6 -10 16 -4 33
5 13 9 26 8 29 -2 10 27 36 43 37 82 5 216 53 276 99 19 14 35 23 35 20 0 -4
10 3 23 16 13 13 35 32 50 42 14 11 24 23 21 28 -3 4 -1 8 5 8 16 0 50 41 68
82 9 21 21 38 26 38 4 0 5 5 1 11 -3 6 0 15 7 20 20 12 15 110 -6 122 -8 4
-13 12 -10 18 4 5 0 9 -7 9 -7 0 -19 9 -26 20 -7 12 -17 18 -22 15 -6 -3 -10
0 -10 7 -1 26 -82 73 -147 84 -16 3 -42 9 -60 13 -22 6 -33 6 -37 -2 -3 -8 -7
-9 -13 -2 -10 12 -83 16 -83 4 0 -4 -12 -7 -27 -5 -16 1 -36 -1 -45 -6 -12 -6
-23 -3 -35 11 -32 34 -53 65 -53 78 0 7 -7 13 -16 13 -8 0 -13 4 -10 9 3 5
-10 25 -29 46 -30 32 -44 40 -75 44 -3 1 -22 16 -43 34 -32 27 -37 36 -30 55
5 13 12 23 16 23 4 -1 8 -1 10 0 19 6 50 9 84 10 23 0 47 7 53 14 6 8 18 11
26 8 8 -3 14 0 14 6 0 6 11 17 25 23 34 15 46 53 45 133 -1 61 -4 82 -13 91
-4 4 -7 16 -7 26 0 20 -80 108 -98 108 -5 0 -22 11 -38 25 -16 14 -33 25 -37
25 -5 0 -15 7 -23 15 -9 8 -26 15 -39 15 -13 0 -30 7 -38 15 -10 9 -17 11 -19
4 -2 -6 -32 -13 -67 -15 -35 -2 -70 -9 -77 -15 -8 -6 -14 -9 -14 -5 0 13 -60
-25 -71 -45 -6 -11 -13 -19 -15 -16 -6 6 -64 -52 -64 -64 0 -5 -6 -9 -13 -9
-22 0 -16 -139 7 -174 10 -16 12 -25 5 -21 -7 5 -4 -3 7 -17 10 -14 21 -24 23
-22 2 2 10 -1 17 -7 10 -8 11 -16 4 -30 -10 -18 -20 -18 -65 1 -11 5 -37 11
-57 15 -21 3 -43 11 -50 18 -7 7 -26 12 -43 11 -16 0 -56 5 -87 11 -40 8 -59
8 -61 1 -5 -16 -34 15 -34 37 0 9 4 17 8 17 5 0 6 6 3 14 -3 9 4 15 20 18 14
3 26 1 26 -5 0 -5 15 2 34 17 19 14 38 26 43 26 13 0 43 38 43 55 0 8 5 15 11
15 5 0 8 4 5 9 -3 5 1 12 10 15 8 3 12 10 9 16 -3 5 0 10 7 10 24 0 11 126
-16 157 -29 33 -36 43 -30 43 3 0 1 7 -6 15 -7 8 -9 15 -4 15 5 0 1 5 -8 11
-10 5 -18 16 -18 22 0 7 -10 13 -21 14 -12 1 -29 9 -38 17 -10 9 -25 16 -35
16 -9 0 -27 5 -39 12 -20 11 -64 18 -71 11z"/>
</g>
</svg>
